<?xml version="1.0" standalone="no"?>
<!DOCTYPE svg PUBLIC "-//W3C//DTD SVG 20010904//EN"
 "http://www.w3.org/TR/2001/REC-SVG-20010904/DTD/svg10.dtd">
<svg version="1.0" xmlns="http://www.w3.org/2000/svg"
 width="180.000000pt" height="59.000000pt" viewBox="0 0 180.000000 59.000000"
 preserveAspectRatio="xMidYMid meet">
<metadata>
Created by potrace 1.16, written by Peter Selinger 2001-2019
</metadata>
<g transform="translate(0.000000,59.000000) scale(0.100000,-0.100000)"
fill="#000000" stroke="none">
<path d="M301 500 c-60 -167 -174 -342 -240 -369 -24 -11 -30 -20 -36 -58 -3
-25 -4 -47 -1 -50 3 -3 30 6 60 21 65 32 125 98 196 216 68 113 72 129 57 225
l-12 80 -24 -65z"/>
<path d="M710 313 c0 -11 -49 -244 -56 -265 -4 -14 0 -18 19 -18 23 0 26 6 42
78 9 42 21 89 27 105 14 37 61 69 95 65 25 -3 28 -8 31 -44 2 -23 -4 -72 -12
-108 -21 -90 -21 -98 6 -94 19 3 24 14 40 93 16 79 22 94 53 123 42 39 81 42
96 9 8 -18 6 -47 -10 -120 -12 -53 -21 -99 -21 -102 0 -3 11 -5 24 -5 22 0 25
7 47 119 21 113 22 120 6 145 -14 20 -26 26 -54 26 -35 0 -103 -33 -103 -51 0
-5 -4 -9 -10 -9 -5 0 -10 8 -10 19 0 52 -99 55 -151 5 l-29 -28 6 32 c6 28 4
32 -15 32 -11 0 -21 -3 -21 -7z"/>
<path d="M1242 298 c-37 -26 -82 -108 -82 -150 0 -42 25 -94 54 -113 32 -21
88 -15 128 15 21 15 28 17 28 7 0 -8 7 -21 16 -28 14 -11 18 -10 30 5 7 11 11
29 8 40 -2 12 6 72 20 134 l24 112 -24 0 c-17 0 -25 -7 -30 -25 l-6 -25 -24
25 c-31 33 -95 35 -142 3z m137 -45 c37 -46 6 -149 -54 -177 -49 -23 -81 -14
-102 28 -49 104 88 236 156 149z"/>
<path d="M1565 244 l35 -76 -67 -69 c-60 -63 -64 -69 -41 -69 17 0 41 17 77
55 l52 54 26 -54 c21 -43 32 -55 50 -55 13 0 23 2 23 5 0 3 -13 32 -30 65 -16
33 -30 64 -30 71 0 6 27 41 60 77 53 59 58 67 40 70 -16 3 -37 -13 -75 -55
l-53 -58 -27 58 c-21 46 -31 57 -50 57 l-24 0 34 -76z"/>
</g>
</svg>
